<svg width="448" height="428" viewBox="0 0 448 428" fill="none" xmlns="http://www.w3.org/2000/svg">
<path fill-rule="evenodd" clip-rule="evenodd" d="M224 164.958C210.626 165.303 197.92 170.621 188.587 179.78C179.255 188.94 174.033 201.218 174.033 214C174.033 226.782 179.255 239.06 188.587 248.219C197.92 257.379 210.626 262.697 224 263.042C237.375 262.697 250.081 257.379 259.413 248.219C268.746 239.06 273.968 226.782 273.968 214C273.968 201.218 268.746 188.94 259.413 179.78C250.081 170.621 237.375 165.303 224 164.958ZM224 191.708C230.189 191.708 236.124 194.057 240.5 198.237C244.875 202.418 247.334 208.088 247.334 214C247.334 219.912 244.875 225.582 240.5 229.762C236.124 233.943 230.189 236.292 224 236.292C217.812 236.292 211.877 233.943 207.501 229.762C203.125 225.582 200.667 219.912 200.667 214C200.667 208.088 203.125 202.418 207.501 198.237C211.877 194.057 217.812 191.708 224 191.708ZM231.019 22.345C228.887 21.1628 226.466 20.54 224 20.54C221.535 20.54 219.114 21.1628 216.982 22.345C206.336 28.2087 197.495 36.6476 191.347 46.8126C185.2 56.9777 181.964 68.5102 181.964 80.2499C181.964 91.9895 185.2 103.522 191.347 113.687C197.495 123.852 206.336 132.291 216.982 138.155C219.114 139.337 221.535 139.96 224 139.96C226.466 139.96 228.887 139.337 231.019 138.155C241.665 132.291 250.506 123.852 256.653 113.687C262.801 103.522 266.037 91.9895 266.037 80.2499C266.037 68.5102 262.801 56.9777 256.653 46.8126C250.506 36.6476 241.665 28.2087 231.019 22.345ZM224 50.3612C232.587 57.7085 238 68.3729 238 80.2499C238 92.1269 232.587 102.791 224 110.139C215.414 102.791 210 92.1269 210 80.2499C210 68.3729 215.414 57.7085 224 50.3612ZM78.4191 64.5744C76.0389 65.1762 73.868 66.3694 72.127 68.0327C70.386 69.696 69.137 71.77 68.5071 74.0439C65.3192 85.3818 65.3133 97.3219 68.4901 108.663C71.6668 120.003 77.9142 130.345 86.6034 138.646C95.2926 146.947 106.117 152.916 117.988 155.951C129.859 158.986 142.357 158.98 154.224 155.935C156.602 155.328 158.77 154.133 160.51 152.47C162.25 150.808 163.501 148.736 164.136 146.465C167.324 135.127 167.33 123.187 164.153 111.846C160.977 100.506 154.729 90.1642 146.04 81.8628C137.351 73.5615 126.526 67.5931 114.656 64.5581C102.785 61.5232 90.2868 61.5288 78.4191 64.5744ZM94.1924 89.113C100.092 88.7952 105.995 89.6712 111.515 91.6837C117.036 93.6962 122.049 96.7998 126.227 100.791C130.405 104.783 133.654 109.572 135.76 114.846C137.867 120.12 138.784 125.76 138.451 131.396C132.552 131.714 126.649 130.838 121.128 128.825C115.608 126.813 110.594 123.709 106.416 119.718C102.238 115.726 98.9897 110.936 96.8832 105.663C94.7766 100.389 93.8597 94.749 94.1924 89.113ZM24.3044 206.421C23.0669 208.458 22.415 210.771 22.415 213.126C22.415 215.481 23.0669 217.794 24.3044 219.831C30.442 230.002 39.2753 238.448 49.9153 244.321C60.5554 250.194 72.6268 253.286 84.915 253.286C97.2033 253.286 109.275 250.194 119.915 244.321C130.555 238.448 139.388 230.002 145.526 219.831C146.763 217.794 147.415 215.481 147.415 213.126C147.415 210.771 146.763 208.458 145.526 206.421C139.388 196.25 130.555 187.804 119.915 181.931C109.275 176.058 97.2033 172.966 84.915 172.966C72.6268 172.966 60.5554 176.058 49.9153 181.931C39.2753 187.804 30.442 196.25 24.3044 206.421ZM53.6297 213.126C61.3204 204.923 72.483 199.751 84.915 199.751C97.347 199.751 108.51 204.923 116.2 213.126C108.51 221.329 97.347 226.501 84.915 226.501C72.483 226.501 61.3204 221.329 53.6297 213.126ZM68.5071 352.208C69.1388 354.481 70.3883 356.554 72.1291 358.217C73.8698 359.88 76.0398 361.074 78.4191 361.678C90.2868 364.723 102.785 364.729 114.656 361.694C126.526 358.659 137.351 352.691 146.04 344.389C154.729 336.088 160.977 325.747 164.153 314.406C167.33 303.065 167.324 291.125 164.136 279.787C163.501 277.516 162.25 275.444 160.51 273.782C158.77 272.119 156.602 270.924 154.224 270.318C142.357 267.272 129.859 267.266 117.988 270.301C106.117 273.336 95.2926 279.305 86.6034 287.606C77.9142 295.907 71.6668 306.249 68.4901 317.589C65.3133 328.93 65.3192 340.87 68.5071 352.208ZM94.1924 337.139C93.8597 331.503 94.7766 325.864 96.8832 320.59C98.9897 315.316 102.238 310.526 106.416 306.534C110.594 302.543 115.608 299.439 121.128 297.427C126.649 295.414 132.552 294.538 138.451 294.856C138.784 300.492 137.867 306.132 135.76 311.406C133.654 316.68 130.405 321.469 126.227 325.461C122.049 329.452 117.036 332.556 111.515 334.568C105.995 336.581 100.092 337.457 94.1924 337.139ZM231.019 288.097C228.887 286.915 226.466 286.292 224 286.292C221.535 286.292 219.114 286.915 216.982 288.097C206.336 293.961 197.495 302.4 191.347 312.565C185.2 322.73 181.964 334.263 181.964 346.002C181.964 357.742 185.2 369.274 191.347 379.439C197.495 389.604 206.336 398.043 216.982 403.907C219.114 405.089 221.535 405.712 224 405.712C226.466 405.712 228.887 405.089 231.019 403.907C241.655 398.036 250.487 389.595 256.627 379.431C262.767 369.266 266 357.738 266 346.002C266 334.267 262.767 322.738 256.627 312.574C250.487 302.41 241.655 293.968 231.019 288.097ZM224 316.114C232.587 323.461 238 334.125 238 346.002C238 357.879 232.587 368.543 224 375.891C215.414 368.543 210 357.879 210 346.002C210 334.125 215.414 323.461 224 316.114ZM293.776 270.318C291.399 270.924 289.231 272.119 287.49 273.782C285.75 275.444 284.5 277.516 283.864 279.787C280.676 291.125 280.671 303.065 283.847 314.406C287.024 325.747 293.271 336.088 301.961 344.389C310.65 352.691 321.475 358.659 333.345 361.694C345.216 364.729 357.714 364.723 369.582 361.678C371.961 361.074 374.131 359.88 375.872 358.217C377.612 356.554 378.862 354.481 379.494 352.208C382.682 340.87 382.687 328.93 379.511 317.589C376.334 306.249 370.087 295.907 361.397 287.606C352.708 279.305 341.884 273.336 330.013 270.301C318.142 267.266 305.644 267.272 293.776 270.318ZM309.55 294.856C315.449 294.538 321.352 295.414 326.872 297.427C332.393 299.439 337.406 302.543 341.584 306.534C345.762 310.526 349.011 315.316 351.118 320.59C353.224 325.864 354.141 331.503 353.808 337.139C347.909 337.457 342.006 336.581 336.486 334.568C330.965 332.556 325.952 329.452 321.774 325.461C317.596 321.469 314.347 316.68 312.24 311.406C310.134 306.132 309.217 300.492 309.55 294.856ZM302.475 206.421C301.237 208.458 300.586 210.771 300.586 213.126C300.586 215.481 301.237 217.794 302.475 219.831C308.613 230.002 317.446 238.448 328.086 244.321C338.726 250.194 350.797 253.286 363.086 253.286C375.374 253.286 387.445 250.194 398.085 244.321C408.725 238.448 417.559 230.002 423.696 219.831C424.934 217.794 425.586 215.481 425.586 213.126C425.586 210.771 424.934 208.458 423.696 206.421C417.559 196.25 408.725 187.804 398.085 181.931C387.445 176.058 375.374 172.966 363.086 172.966C350.797 172.966 338.726 176.058 328.086 181.931C317.446 187.804 308.613 196.25 302.475 206.421ZM331.8 213.126C339.491 204.923 350.654 199.751 363.086 199.751C375.518 199.751 386.68 204.923 394.371 213.126C386.68 221.329 375.518 226.501 363.086 226.501C350.654 226.501 339.491 221.329 331.8 213.126ZM283.864 146.465C284.5 148.736 285.75 150.808 287.49 152.47C289.231 154.133 291.399 155.328 293.776 155.935C305.644 158.98 318.142 158.986 330.013 155.951C341.884 152.916 352.708 146.947 361.397 138.646C370.087 130.345 376.334 120.003 379.511 108.663C382.687 97.3219 382.682 85.3818 379.494 74.0439C378.864 71.77 377.615 69.696 375.874 68.0327C374.133 66.3694 371.962 65.1762 369.582 64.5744C357.714 61.5288 345.216 61.5232 333.345 64.5581C321.475 67.5931 310.65 73.5615 301.961 81.8628C293.271 90.1642 287.024 100.506 283.847 111.846C280.671 123.187 280.676 135.127 283.864 146.465ZM309.55 131.396C309.217 125.76 310.134 120.12 312.24 114.846C314.347 109.572 317.596 104.783 321.774 100.791C325.952 96.7998 330.965 93.6962 336.486 91.6837C342.006 89.6712 347.909 88.7952 353.808 89.113C354.141 94.749 353.224 100.389 351.118 105.663C349.011 110.936 345.762 115.726 341.584 119.718C337.406 123.709 332.393 126.813 326.872 128.825C321.352 130.838 315.449 131.714 309.55 131.396Z" fill="#8DC8DF"/>
</svg>
